<svg width="77" height="77" viewBox="0 0 77 77" fill="none" xmlns="http://www.w3.org/2000/svg">
<g id="immediate" clip-path="url(#clip0_1_212)">
<g id="Clip path group">
<mask id="mask0_1_212" style="mask-type:luminance" maskUnits="userSpaceOnUse" x="0" y="0" width="77" height="77">
<g id="clip0_5613_4976">
<path id="Vector" d="M77 0H0V77H77V0Z" fill="white"/>
</g>
</mask>
<g mask="url(#mask0_1_212)">
<g id="Group">
<path id="Vector_2" fill-rule="evenodd" clip-rule="evenodd" d="M6.41669 14.4375C6.41669 12.6656 7.85311 11.2292 9.62502 11.2292H67.375C69.147 11.2292 70.5834 12.6656 70.5834 14.4375V33.6875H6.41669V14.4375ZM22.4584 17.6458H12.8334V24.0625H22.4584V17.6458ZM36.8959 17.6458H27.2709V24.0625H36.8959V17.6458Z" fill="white"/>
<path id="Vector_3" d="M42.4533 44.9167C43.7408 42.4464 45.5083 40.2663 47.6324 38.5H6.41669V44.9167H20.0518V51.7466C20.0518 51.8824 20.0173 52.0161 19.9515 52.1349L17.6226 56.342C17.1168 56.2138 16.5873 56.1458 16.0417 56.1458C12.4979 56.1458 9.62502 59.0187 9.62502 62.5625C9.62502 66.1063 12.4979 68.9792 16.0417 68.9792C19.5855 68.9792 22.4584 66.1063 22.4584 62.5625C22.4584 61.3416 22.1173 60.2002 21.5254 59.2286L24.162 54.4658C24.6227 53.6334 24.8643 52.6978 24.8643 51.7466V44.9167H32.8854V59.8207C30.5339 60.7724 28.875 63.0779 28.875 65.7708C28.875 69.3146 31.7479 72.1875 35.2917 72.1875C38.8355 72.1875 41.7084 69.3146 41.7084 65.7708C41.7084 63.0779 40.0495 60.7724 37.6979 59.8207V44.9167H42.4533Z" fill="white"/>
<path id="Vector_4" fill-rule="evenodd" clip-rule="evenodd" d="M57.1512 38.5L56.3477 42.548C55.0077 43.0459 53.7688 43.7415 52.6809 44.6191L48.7239 43.278L44.9167 49.7637L48.083 52.4675C47.9707 53.1444 47.898 53.8336 47.898 54.5417C47.898 55.2497 47.9707 55.9389 48.083 56.6159L44.9167 59.3197L48.7239 65.8053L52.6809 64.4644C53.7688 65.3419 55.0077 66.0374 56.3477 66.5354L57.1512 70.5833H64.7655L65.569 66.5354C66.909 66.0374 68.1479 65.3419 69.2359 64.4644L73.1929 65.8053L77 59.3197L73.8337 56.6159C73.946 55.9389 74.0187 55.2497 74.0187 54.5417C74.0187 53.8336 73.946 53.1444 73.8337 52.4675L77 49.7637L73.1929 43.278L69.2359 44.6191C68.1479 43.7415 66.909 43.0459 65.569 42.548L64.7655 38.5H57.1512ZM66.3057 54.5413C66.3057 57.4946 63.9116 59.8887 60.9584 59.8887C58.0052 59.8887 55.6112 57.4946 55.6112 54.5413C55.6112 51.5882 58.0052 49.1942 60.9584 49.1942C63.9116 49.1942 66.3057 51.5882 66.3057 54.5413Z" fill="white"/>
</g>
</g>
</g>
</g>
<defs>
<clipPath id="clip0_1_212">
<rect width="77" height="77" fill="white"/>
</clipPath>
</defs>
</svg>
